<svg width="16" height="16" viewBox="0 0 16 16" fill="none" xmlns="http://www.w3.org/2000/svg">
<path d="M5.94023 13.7797C5.81356 13.7797 5.68689 13.733 5.58689 13.633C5.39356 13.4397 5.39356 13.1197 5.58689 12.9264L9.93356 8.57968C10.2536 8.25969 10.2536 7.73968 9.93356 7.41968L5.58689 3.07302C5.39356 2.87969 5.39356 2.55968 5.58689 2.36635C5.78023 2.17302 6.10023 2.17302 6.29356 2.36635L10.6402 6.71302C10.9802 7.05302 11.1736 7.51302 11.1736 7.99968C11.1736 8.48635 10.9869 8.94635 10.6402 9.28635L6.29356 13.633C6.19356 13.7264 6.06689 13.7797 5.94023 13.7797Z" fill="#647184"/>
</svg>
