<svg width="20" height="21" viewBox="0 0 20 21" fill="none" xmlns="http://www.w3.org/2000/svg">
<path d="M10 20.5C15.5228 20.5 20 16.0228 20 10.5C20 4.97715 15.5228 0.5 10 0.5C4.47715 0.5 0 4.97715 0 10.5C0 16.0228 4.47715 20.5 10 20.5Z" fill="#F7931A"/>
<path d="M9.79451 16.6111L8.70809 16.347L9.15352 14.6148C8.83099 14.5367 8.54648 14.4648 8.28506 14.3962L7.83352 16.1358L6.7471 15.8717L7.19796 14.1123L6.91821 14.0444C6.75457 14.003 6.58821 13.9609 6.42117 13.9202L5 13.5746L5.54321 12.3619C5.54932 12.3619 6.29012 12.5547 6.33358 12.5547C6.37659 12.5645 6.42052 12.5697 6.46463 12.5703C6.54641 12.5691 6.62585 12.5428 6.69217 12.495C6.75849 12.4471 6.80849 12.38 6.83537 12.3028L7.5463 9.5263L7.66105 9.55346C7.62488 9.53972 7.58792 9.52816 7.55037 9.51883L8.05556 7.53679C8.06919 7.38798 8.02345 7.23982 7.92832 7.12458C7.83318 7.00935 7.69635 6.93639 7.54765 6.92161C7.5429 6.9087 7.0479 6.79531 6.75593 6.73012L7.04586 5.59889L8.54988 5.96352V5.96895C8.77259 6.02259 8.99667 6.07284 9.24586 6.12784L9.69198 4.38889L10.7784 4.65302L10.3445 6.35802L10.443 6.37975C10.6976 6.43679 10.9604 6.49586 11.217 6.55765L11.6543 4.8642L12.7448 5.12833L12.2953 6.86728C13.9562 7.4234 14.6515 8.19747 14.4811 9.30222C14.4526 9.67858 14.3008 10.035 14.0491 10.3163C13.7974 10.5976 13.46 10.7879 13.0891 10.8578C13.3344 10.9469 13.5578 11.0874 13.7445 11.2698C13.9311 11.4521 14.0767 11.6723 14.1715 11.9154C14.2662 12.1586 14.3079 12.4192 14.2939 12.6798C14.2798 12.9404 14.2103 13.195 14.0899 13.4265C13.9325 13.9297 13.6051 14.3625 13.1638 14.6508C12.7225 14.9392 12.1946 15.0652 11.6706 15.0073C11.1917 14.9995 10.7145 14.9486 10.2447 14.8552L9.79451 16.6111ZM9.23296 10.7899L8.63407 13.121L8.83778 13.1733C9.4263 13.3445 10.033 13.4452 10.6453 13.4734C11.4031 13.4734 11.854 13.212 11.9864 12.6959C12.0224 12.5723 12.0321 12.4425 12.0149 12.315C11.9977 12.1874 11.954 12.0648 11.8865 11.9551C11.471 11.2809 10.189 11.0011 9.4971 10.8504C9.39661 10.8273 9.30698 10.8076 9.23296 10.7899ZM10.0478 7.60877L9.50457 9.72321L9.68179 9.76802C10.1545 9.90755 10.6425 9.98873 11.1349 10.0098C11.8003 10.0098 12.2009 9.76531 12.3245 9.28389C12.3592 9.16677 12.3691 9.04369 12.3534 8.92254C12.3377 8.80139 12.2969 8.68486 12.2335 8.58043C11.877 8.00395 10.8327 7.7792 10.2719 7.65901C10.187 7.63932 10.1116 7.62302 10.0498 7.60809L10.0478 7.60877Z" fill="white"/>
</svg>
