<svg width="16" height="16" viewBox="0 0 16 16" fill="none" xmlns="http://www.w3.org/2000/svg">
<path d="M8.00016 14.6667C11.6821 14.6667 14.6668 11.6819 14.6668 8C14.6668 4.3181 11.6821 1.33333 8.00016 1.33333C4.31826 1.33333 1.3335 4.3181 1.3335 8C1.3335 11.6819 4.31826 14.6667 8.00016 14.6667Z" fill="#71B0FD"/>
<path d="M7.05346 10.3867C6.92012 10.3867 6.79346 10.3333 6.70012 10.24L4.81346 8.35334C4.62012 8.16 4.62012 7.84 4.81346 7.64667C5.00679 7.45334 5.32679 7.45334 5.52012 7.64667L7.05346 9.18L10.4801 5.75334C10.6735 5.56 10.9935 5.56 11.1868 5.75334C11.3801 5.94667 11.3801 6.26667 11.1868 6.46L7.40679 10.24C7.31346 10.3333 7.18679 10.3867 7.05346 10.3867Z" fill="white"/>
</svg>
